HIERARCHY
ROOT Hips
{
	OFFSET	0.00	0.00	0.00
	CHANNELS 6 Xposition Yposition Zposition Zrotation Xrotation Yrotation
	JOINT LeftUpLeg
	{
		OFFSET	 0.126116	-0.014019	-0.065224
		CHANNELS 3 Zrotation Xrotation Yrotation
		JOINT LeftLeg
		{
			OFFSET	 0.000000	 0.000000	 0.569914
			CHANNELS 3 Zrotation Xrotation Yrotation
			JOINT LeftFoot
			{
				OFFSET	 0.000000	 0.000000	 0.544423
				CHANNELS 3 Zrotation Xrotation Yrotation
				JOINT LeftToeBase
				{
					OFFSET	 0.000000	 0.000000	 0.207117
					CHANNELS 3 Zrotation Xrotation Yrotation
					End Site
					{
						OFFSET	 0.000000	 0.000000	 0.207117
					}
				}
			}
		}
	}
	JOINT RightUpLeg
	{
		OFFSET	-0.124023	-0.008373	-0.065224
		CHANNELS 3 Zrotation Xrotation Yrotation
		JOINT RightLeg
		{
			OFFSET	 0.000000	 0.000000	 0.570047
			CHANNELS 3 Zrotation Xrotation Yrotation
			JOINT RightFoot
			{
				OFFSET	 0.000000	 0.000000	 0.544354
				CHANNELS 3 Zrotation Xrotation Yrotation
				JOINT RightToeBase
				{
					OFFSET	 0.000000	 0.000000	 0.207540
					CHANNELS 3 Zrotation Xrotation Yrotation
					End Site
					{
						OFFSET	 0.000000	 0.000000	 0.207540
					}
				}
			}
		}
	}
	JOINT Spine
	{
		OFFSET	 0.000184	-0.007763	 0.117403
		CHANNELS 3 Zrotation Xrotation Yrotation
		JOINT Spine1
		{
			OFFSET	 0.000000	 0.000000	 0.137269
			CHANNELS 3 Zrotation Xrotation Yrotation
			JOINT Spine2
			{
				OFFSET	 0.000000	 0.000000	 0.156879
				CHANNELS 3 Zrotation Xrotation Yrotation
				JOINT LeftShoulder
				{
					OFFSET	 0.080501	-0.002496	 0.160144
					CHANNELS 3 Zrotation Xrotation Yrotation
					JOINT LeftArm
					{
						OFFSET	 0.000000	 0.000000	 0.164363
						CHANNELS 3 Zrotation Xrotation Yrotation
						JOINT LeftForeArm
						{
							OFFSET	 0.000000	 0.000000	 0.364576
							CHANNELS 3 Zrotation Xrotation Yrotation
							JOINT LeftHand
							{
								OFFSET	 0.000000	 0.000000	 0.360812
								CHANNELS 3 Zrotation Xrotation Yrotation
								JOINT LeftHandIndex1
								{
									OFFSET	 0.000000	 0.000000	 0.086006
									CHANNELS 3 Zrotation Xrotation Yrotation
									JOINT LeftHandIndex2
									{
										OFFSET	 0.000000	 0.000000	 0.047236
										CHANNELS 3 Zrotation Xrotation Yrotation
										JOINT LeftHandIndex3
										{
											OFFSET	-0.004284	-0.000551	 0.038166
											CHANNELS 3 Zrotation Xrotation Yrotation
											End Site
											{
												OFFSET	-0.004284	-0.000551	 0.038166
											}
										}
									}
								}
							}
						}
					}
				}
				JOINT Neck
				{
					OFFSET	 0.000000	 0.000000	 0.176489
					CHANNELS 3 Zrotation Xrotation Yrotation
					JOINT Head
					{
						OFFSET	 0.000000	-0.001747	 0.077940
						CHANNELS 3 Zrotation Xrotation Yrotation
						End Site
						{
							OFFSET	 0.000000	-0.001747	 0.077940
						}
					}
				}
				JOINT RightShoulder
				{
					OFFSET	-0.080363	 0.000306	 0.159706
					CHANNELS 3 Zrotation Xrotation Yrotation
					JOINT RightArm
					{
						OFFSET	 0.000000	 0.000000	 0.164196
						CHANNELS 3 Zrotation Xrotation Yrotation
						JOINT RightForeArm
						{
							OFFSET	 0.000000	 0.000000	 0.365611
							CHANNELS 3 Zrotation Xrotation Yrotation
							JOINT RightHand
							{
								OFFSET	 0.000000	 0.000000	 0.360648
								CHANNELS 3 Zrotation Xrotation Yrotation
								JOINT RightHandIndex1
								{
									OFFSET	 0.000000	 0.000000	 0.069977
									CHANNELS 3 Zrotation Xrotation Yrotation
									JOINT RightHandIndex2
									{
										OFFSET	 0.000000	 0.000000	 0.052305
										CHANNELS 3 Zrotation Xrotation Yrotation
										JOINT RightHandIndex3
										{
											OFFSET	 0.009002	-0.000782	 0.042196
											CHANNELS 3 Zrotation Xrotation Yrotation
											End Site
											{
												OFFSET	 0.009002	-0.000782	 0.042196
											}
										}
									}
								}
							}
						}
					}
				}
			}
		}
	}
}
MOTION
Frames:    4
Frame Time: 0.03333334
-0.000409	 0.021925	 1.267694	-0.001194	 0.017268	-0.044381	 2.782555	-3.231136	 177.849100	 1.436231	-14.609720	-0.859207	-7.837277	 72.284540	 1.768365	-2.385833	 28.452760	 0.000004	-2.889012	-3.864706	-177.792500	-1.413678	-15.241970	 0.881657	 7.613527	 72.389250	-1.690489	 2.384658	 28.388730	 0.000004	-12.648730	 1.754027	 0.042305	 0.590101	 6.960660	 0.241848	-1.721288	-8.876657	-0.482492	-91.776210	 78.527430	-180.000000	 55.263910	 38.993610	-51.279590	-22.852360	 3.065356	-10.818120	-39.522610	-17.705280	-7.400973	-2.635965	 4.993658	 6.788941	-5.165319	 0.784187	 3.516649	-5.225038	 0.466231	 0.424329	-0.000002	-3.783157	-0.089647	-1.591463	 3.033932	 0.042134	 89.782090	 78.203890	 180.000000	 0.474484	 12.843640	 104.349600	-19.695180	 2.727676	 10.915230	 10.828890	-19.909730	-3.348527	 6.112037	 4.509576	-0.364401	 4.968462	 1.518543	-9.347576	 5.168945	 0.703820	 2.021906
-0.000465	 0.022355	 1.268358	-0.001186	 0.015807	-0.068947	 2.794500	-2.949645	 177.851400	 1.445099	-14.024260	-0.823329	-7.652705	 71.983830	 1.574385	-2.385833	 28.452760	 0.000004	-2.895982	-3.658882	-177.754200	-1.421075	-14.770150	 0.853096	 7.449083	 72.128160	-1.517601	 2.384658	 28.388730	 0.000004	-11.341320	 1.829234	 0.062630	 0.800318	 6.778756	 0.261526	-2.340414	-8.695214	-0.621039	-91.776280	 78.527450	-179.999900	 55.329190	 38.971370	-51.427470	-23.062650	 3.147095	-10.959640	-39.611680	-17.046400	-7.325170	-2.635965	 4.993658	 6.788941	-5.165319	 0.784187	 3.516649	-5.225038	 0.466231	 0.424329	-0.000002	-3.783157	-0.089647	-2.180061	 3.073154	 0.058472	 89.782070	 78.203890	-180.000000	 0.530340	 13.063130	 104.410300	-19.650500	 2.809413	 11.059520	 11.058370	-19.401410	-3.431233	 6.112037	 4.509576	-0.364401	 4.968462	 1.518543	-9.347576	 5.168945	 0.703820	 2.021906
-0.000492	 0.022771	 1.268938	-0.000877	 0.013603	-0.094886	 2.805394	-2.689750	 177.856900	 1.452920	-13.485050	-0.790447	-7.486829	 71.699520	 1.399975	-2.385833	 28.452760	 0.000004	-2.902544	-3.477540	-177.716600	-1.427448	-14.349530	 0.827737	 7.303038	 71.885610	-1.364046	 2.384658	 28.388730	 0.000004	-9.784927	 1.871095	 0.060809	 1.002547	 6.646111	 0.324910	-2.948726	-8.505085	-0.773995	-91.776230	 78.527430	-180.000000	 55.448780	 38.959980	-51.676050	-23.267840	 3.230291	-11.100580	-39.695730	-16.217970	-7.215970	-2.635965	 4.993658	 6.788941	-5.165319	 0.784187	 3.516649	-5.225038	 0.466231	 0.424329	-0.000002	-3.783157	-0.089647	-2.757760	 3.126367	 0.075258	 89.782120	 78.203870	 180.000000	 0.520493	 13.363560	 104.428500	-19.624850	 2.889780	 11.202450	 10.983430	-18.541460	-3.544235	 6.112037	 4.509576	-0.364401	 4.968462	 1.518543	-9.347576	 5.168945	 0.703820	 2.021906
-0.000481	 0.023151	 1.269330	-0.000504	 0.011076	-0.119198	 2.814778	-2.504002	 177.866300	 1.458341	-13.096850	-0.766867	-7.361887	 71.413820	 1.270744	-2.385833	 28.452760	 0.000004	-2.908166	-3.365934	-177.685600	-1.431553	-14.071330	 0.811019	 7.194400	 71.637540	-1.252012	 2.384658	 28.388730	 0.000004	-7.996682	 1.921310	 0.057549	 1.191206	 6.485686	 0.386835	-3.518083	-8.276667	-0.913203	-91.776150	 78.527470	 180.000000	 55.624410	 38.979430	-52.038760	-23.445830	 3.300880	-11.219230	-39.764050	-15.227040	-7.070670	-2.635965	 4.993658	 6.788941	-5.165319	 0.784187	 3.516649	-5.225038	 0.466231	 0.424329	-0.000002	-3.783157	-0.089647	-3.301968	 3.192323	 0.092022	 89.782140	 78.203890	 180.000000	 0.439995	 14.092790	 104.433000	-19.342820	 2.963107	 11.320660	 10.184930	-17.315350	-3.654783	 6.112037	 4.509576	-0.364401	 4.968462	 1.518543	-9.347576	 5.168945	 0.703820	 2.021906
